<?xml version="1.0" standalone="no"?>
<!DOCTYPE svg PUBLIC "-//W3C//DTD SVG 20010904//EN"
 "http://www.w3.org/TR/2001/REC-SVG-20010904/DTD/svg10.dtd">
<svg version="1.0" xmlns="http://www.w3.org/2000/svg"
 width="298.000000pt" height="298.000000pt" viewBox="0 0 298.000000 298.000000"
 preserveAspectRatio="xMidYMid meet">
<metadata>
Created by potrace 1.11, written by Peter Selinger 2001-2013
</metadata>
<g transform="translate(0.000000,298.000000) scale(0.100000,-0.100000)"
fill="#000000" stroke="none">
<path d="M1335 2969 c-582 -61 -1084 -469 -1263 -1029 -54 -168 -67 -256 -66
-455 0 -146 4 -199 22 -281 101 -472 387 -844 810 -1054 307 -152 679 -191
1018 -105 482 122 883 492 1042 960 58 170 76 280 76 480 1 199 -12 287 -66
455 -215 670 -874 1102 -1573 1029z m428 -533 c218 -65 418 -208 536 -385 56
-82 125 -229 145 -306 88 -346 -5 -693 -253 -948 -125 -130 -292 -225 -467
-269 -127 -31 -341 -31 -468 0 -167 42 -317 126 -449 251 -303 289 -389 742
-212 1117 103 220 249 371 460 476 156 78 256 98 460 94 138 -3 172 -7 248
-30z"/>
<path d="M1100 1485 c0 -334 4 -605 8 -603 29 11 1042 601 1042 606 -1 7
-1000 585 -1033 597 -16 7 -17 -27 -17 -600z"/>
</g>
</svg>
