<?xml version="1.0" encoding="UTF-8" standalone="no"?>
<svg
   xmlns:dc="http://purl.org/dc/elements/1.1/"
   xmlns:cc="http://creativecommons.org/ns#"
   xmlns:rdf="http://www.w3.org/1999/02/22-rdf-syntax-ns#"
   xmlns:svg="http://www.w3.org/2000/svg"
   xmlns="http://www.w3.org/2000/svg"
   viewBox="0 0 520 520"
   height="520"
   width="520"
   xml:space="preserve"
   id="svg2"
   version="1.1"><metadata
     id="metadata8"><rdf:RDF><cc:Work
         rdf:about=""><dc:format>image/svg+xml</dc:format><dc:type
           rdf:resource="http://purl.org/dc/dcmitype/StillImage" /></cc:Work></rdf:RDF></metadata><defs
     id="defs6" /><g
     transform="matrix(1.3333333,0,0,-1.3333333,0,520)"
     id="g10"><g
       transform="scale(0.1)"
       id="g12"><path
         id="path14"
         style="fill:#ececec;fill-opacity:1;fill-rule:nonzero;stroke:none"
         d="M 3650,0 H 250 C 112.5,0 0,112.5 0,250 v 3400 c 0,137.5 112.5,250 250,250 h 3400 c 137.5,0 250,-112.5 250,-250 V 250 C 3900,112.5 3787.5,0 3650,0" /><path
         id="path16"
         style="fill:#436ebf;fill-opacity:1;fill-rule:nonzero;stroke:none"
         d="m 958.227,1950 c 0,546.87 444.903,991.77 991.773,991.77 v 493.05 c -820.05,0 -1484.824,-664.77 -1484.824,-1484.82 0,-444.5 195.574,-843.09 505.066,-1115.211 L 1310.59,1192.7 c -215.3,182.07 -352.363,453.92 -352.363,757.3" /><path
         id="path18"
         style="fill:#2b53ac;fill-opacity:1;fill-rule:nonzero;stroke:none"
         d="m 1950,3434.82 v -493.05 c 546.87,0 991.77,-444.9 991.77,-991.77 0,-546.87 -444.9,-991.77 -991.77,-991.77 -243.49,0 -466.62,88.35 -639.41,234.47 L 970.242,834.789 C 1231.73,604.879 1574.45,465.172 1950,465.172 c 820.05,0 1484.83,664.778 1484.83,1484.828 0,820.05 -664.78,1484.82 -1484.83,1484.82" /><path
         id="path20"
         style="fill:#133345;fill-opacity:1;fill-rule:nonzero;stroke:none"
         d="M 1566.91,2552.2 2609.95,1950 1566.91,1347.8 v 1204.4" /></g></g></svg>